<svg version="1.1" xmlns="http://www.w3.org/2000/svg" viewBox="0 0 687.5 287.5" width="687.5" height="287.5">
  <!-- svg-source:excalidraw -->
  
  <defs>
    <style>
      @font-face {
        font-family: "Virgil";
        src: url("https://excalidraw.com/Virgil.woff2");
      }
      @font-face {
        font-family: "Cascadia";
        src: url("https://excalidraw.com/Cascadia.woff2");
      }
    </style>
  </defs>
  <g stroke-linecap="round" transform="translate(229.5 10) rotate(0 104.5 21.5)"><path d="M-0.75 -0.21 C59.42 -1.8, 118.14 -2.77, 207.34 -1.12 M0.61 -0.19 C76.81 -1.52, 152.96 -0.2, 208.33 0.34 M210.71 -0.91 C210.77 13.09, 209.29 22.2, 209.58 42.82 M208.85 0.32 C208.72 13.11, 208.58 25.02, 208.26 43.99 M209.44 41.92 C165.19 43.8, 118.23 42.38, 0.83 43.38 M208.83 43.18 C130.86 41.26, 53.44 42.03, 0.76 42.34 M-1.9 41.68 C1.16 30.2, 0.23 18.33, -0.49 -0.77 M0.61 43.31 C-0.2 28.08, -0.13 12, 0.79 0.53" stroke="#000000" stroke-width="1" fill="none"></path></g><g stroke-linecap="round" transform="translate(229.5 141.5) rotate(0 104.5 21.5)"><path d="M1.59 -0.9 C73.59 0.63, 144.63 0.65, 207.61 -0.6 M-0.64 -0.52 C77.06 -0.73, 153.98 -2.12, 208.2 0.2 M207.24 -0.17 C208.4 16.67, 210.92 32.61, 210.3 43.93 M209.84 -0.37 C209.15 13.98, 209 29.52, 209.21 43.66 M208.36 44.03 C142.47 43.92, 74.01 43.18, -0.11 44.68 M209.74 42.82 C165.44 43.1, 123.87 44.19, -0.16 42.96 M0.72 42.27 C0.02 32.58, 0.12 25.53, -1.36 0.45 M-0.54 43.27 C0.64 29.2, -0.16 16.8, 0.39 0.41" stroke="#000000" stroke-width="1" fill="none"></path></g><g stroke-linecap="round" transform="translate(229.5 234.5) rotate(0 104.5 21.5)"><path d="M0.89 0.91 C65.21 1.89, 130.53 0.35, 210.2 0.75 M0.17 0.74 C79.53 0.44, 157.84 1.29, 209.6 0.01 M208.39 0.87 C210.54 16.57, 209.92 32.03, 209.92 43.45 M209.06 -0.9 C209.26 10.44, 209.57 22.02, 209.22 42.41 M209.75 43.71 C143.57 44.05, 78.88 45.76, -1.69 42.41 M208.16 42.44 C139.17 43.15, 68.54 42.59, -0.84 43.27 M0.15 41.39 C0.09 30.98, -1.51 19.11, 0.12 -0.91 M0.45 42.36 C-0.12 31.28, 0.62 19.73, -0.24 0.28" stroke="#000000" stroke-width="1" fill="none"></path></g><g stroke-linecap="round" transform="translate(229.5 95.5) rotate(0 104.5 21.5)"><path d="M1.29 1.55 C50.65 -1.07, 105.27 -0.99, 208.23 1.09 M-0.61 0.02 C78.47 0.67, 157.22 -0.22, 209.36 -0.09 M209.38 -0.67 C209.07 15.19, 210.41 32.36, 209.2 43.95 M208.22 -0.73 C209.1 16, 209.68 33.64, 208.29 43.44 M207.4 43.76 C148.9 43, 89.69 42.45, -1.2 43.39 M209.68 42.6 C159.58 42.22, 109.01 42.21, 0.37 42.75 M0.56 43.61 C0.62 27.41, 1.16 11.33, 0.91 1.77 M0.7 43.25 C0.7 32.99, -0.1 22.04, -0.26 -0.85" stroke="#000000" stroke-width="1" fill="none"></path></g><g stroke-linecap="round" transform="translate(10 95) rotate(0 76.5 53.5)"><path d="M61.84 0.92 C72.74 -1.31, 86.55 0.31, 97.85 2.71 C109.15 5.11, 121.18 9.66, 129.67 15.33 C138.16 21, 145.17 29.14, 148.79 36.73 C152.4 44.33, 153.02 52.96, 151.35 60.92 C149.68 68.87, 145.75 77.73, 138.75 84.49 C131.75 91.25, 120.27 97.56, 109.37 101.46 C98.48 105.36, 85.14 108.11, 73.39 107.91 C61.63 107.71, 49.18 104.42, 38.84 100.28 C28.49 96.14, 17.84 90.13, 11.32 83.08 C4.81 76.03, 0.55 66.45, -0.28 57.98 C-1.11 49.51, 1.65 39.75, 6.34 32.27 C11.03 24.79, 16.62 18.4, 27.87 13.09 C39.11 7.78, 63.99 2.22, 73.82 0.41 C83.65 -1.4, 86.81 1.28, 86.85 2.23 M61.92 0.22 C72.62 -2.28, 86.6 -0.96, 97.75 1.54 C108.89 4.03, 120.02 9.1, 128.79 15.17 C137.56 21.23, 146.44 30.18, 150.37 37.91 C154.31 45.65, 154.54 53.65, 152.38 61.57 C150.23 69.48, 144.8 78.69, 137.44 85.4 C130.09 92.11, 119.16 98.4, 108.24 101.85 C97.31 105.3, 83.66 106.53, 71.89 106.09 C60.13 105.65, 47.78 103.26, 37.66 99.23 C27.54 95.2, 17.32 89.08, 11.18 81.93 C5.03 74.78, 1.6 64.4, 0.78 56.35 C-0.03 48.29, 1.5 41.19, 6.3 33.58 C11.09 25.97, 20.29 16, 29.56 10.71 C38.82 5.42, 56.79 3.06, 61.89 1.83 C66.99 0.6, 60.09 2.79, 60.15 3.31" stroke="#c92a2a" stroke-width="2" fill="none"></path></g><g transform="translate(17 123.5) rotate(0 69.5 25)"><text x="69.5" y="18" font-family="Virgil, Segoe UI Emoji" font-size="20px" fill="#1864ab" text-anchor="middle" style="white-space: pre;" direction="ltr">Redis Parent </text><text x="69.5" y="43" font-family="Virgil, Segoe UI Emoji" font-size="20px" fill="#1864ab" text-anchor="middle" style="white-space: pre;" direction="ltr">Process</text></g><g stroke-linecap="round" transform="translate(524.5 113.5) rotate(0 76.5 53.5)"><path d="M64.72 1.53 C75.83 -0.29, 90.08 1.13, 101.38 3.62 C112.69 6.1, 124.43 10.43, 132.54 16.46 C140.65 22.48, 146.75 31.62, 150.02 39.75 C153.29 47.88, 154.46 57.29, 152.16 65.23 C149.85 73.17, 143.92 81.19, 136.17 87.38 C128.43 93.57, 116.83 99.13, 105.67 102.36 C94.51 105.6, 81.12 107.5, 69.23 106.77 C57.33 106.04, 44.04 102.45, 34.28 97.98 C24.53 93.5, 16.35 87.22, 10.69 79.94 C5.03 72.65, 0.91 62.45, 0.32 54.28 C-0.26 46.11, 2.19 38.25, 7.2 30.91 C12.22 23.57, 19.59 15.22, 30.41 10.25 C41.23 5.27, 64.32 2.51, 72.14 1.04 C79.96 -0.43, 77.24 0.75, 77.31 1.41 M51.35 2.58 C61.44 -0.58, 75.97 -1.12, 87.69 0.33 C99.41 1.79, 111.89 6.5, 121.66 11.31 C131.43 16.12, 141.28 22.14, 146.32 29.17 C151.36 36.2, 152.23 44.87, 151.89 53.5 C151.55 62.13, 149.95 73.24, 144.29 80.95 C138.63 88.67, 127.9 95.74, 117.93 99.79 C107.97 103.84, 96.32 104.76, 84.51 105.27 C72.7 105.77, 58.07 105.92, 47.08 102.8 C36.08 99.69, 26.2 92.8, 18.54 86.59 C10.88 80.37, 3.86 73.18, 1.13 65.51 C-1.6 57.84, -1.07 48.53, 2.18 40.57 C5.42 32.61, 12.25 24.03, 20.61 17.76 C28.97 11.49, 47.17 5.37, 52.34 2.96 C57.51 0.55, 51.53 2.25, 51.62 3.28" stroke="#c92a2a" stroke-width="2" fill="none"></path></g><g transform="translate(543 142) rotate(0 58 25)"><text x="58" y="18" font-family="Virgil, Segoe UI Emoji" font-size="20px" fill="#1864ab" text-anchor="middle" style="white-space: pre;" direction="ltr">Redis Child </text><text x="58" y="43" font-family="Virgil, Segoe UI Emoji" font-size="20px" fill="#1864ab" text-anchor="middle" style="white-space: pre;" direction="ltr">Process</text></g><g transform="translate(306.5 19) rotate(0 27.5 12.5)"><text x="27.5" y="18" font-family="Virgil, Segoe UI Emoji" font-size="20px" fill="#087f5b" text-anchor="middle" style="white-space: pre;" direction="ltr">Page1</text></g><g stroke-linecap="round" transform="translate(229.5 52.5) rotate(0 104.5 22.5)"><path d="M-0.73 0.5 C45.32 1.25, 92.48 0.63, 208.08 1.67 M0.83 -0.29 C71.89 -0.01, 143.52 0.18, 209.22 -0.49 M209.9 -1.34 C210.89 13.66, 208.18 25.22, 208.11 46.19 M208.2 -0.71 C208.23 16.89, 208.57 33.5, 208.73 45.99 M210.05 45.71 C131.73 44.2, 59.59 45.84, -1.39 46.73 M209.3 44.94 C136.28 44.07, 61.54 43.27, 0.51 45.73 M-1 43.69 C-1.63 29.89, -1.64 14.63, -1.95 0.16 M0.33 45.43 C0.87 34.61, 0.43 24.71, 0.57 -0.75" stroke="#000000" stroke-width="1" fill="none"></path></g><g transform="translate(302 62.5) rotate(0 32 12.5)"><text x="32" y="18" font-family="Virgil, Segoe UI Emoji" font-size="20px" fill="#087f5b" text-anchor="middle" style="white-space: pre;" direction="ltr">Page2</text></g><g transform="translate(302.5 104.5) rotate(0 31.5 12.5)"><text x="31.5" y="18" font-family="Virgil, Segoe UI Emoji" font-size="20px" fill="#087f5b" text-anchor="middle" style="white-space: pre;" direction="ltr">Page3</text></g><g transform="translate(296 150.5) rotate(0 38 12.5)"><text x="38" y="18" font-family="Virgil, Segoe UI Emoji" font-size="20px" fill="#087f5b" text-anchor="middle" style="white-space: pre;" direction="ltr">Page4a</text></g><g transform="translate(303 243.5) rotate(0 31 12.5)"><text x="31" y="18" font-family="Virgil, Segoe UI Emoji" font-size="20px" fill="#087f5b" text-anchor="middle" style="white-space: pre;" direction="ltr">Page5</text></g><g stroke-linecap="round"><g transform="translate(154 111) rotate(0 34.53980849315877 -16.431345535344434)"><path d="M0.63 0.48 C12.24 -4.91, 58.32 -26.06, 69.58 -31.83 M-0.5 -0.32 C11.01 -6.06, 57.07 -27.83, 68.93 -33.34" stroke="#087f5b" stroke-width="2" fill="none"></path></g><g transform="translate(154 111) rotate(0 34.53980849315877 -16.431345535344434)"><path d="M48.57 -11.11 C55.84 -19.76, 58.21 -24.92, 69.45 -33.89 M47.18 -12.64 C55.29 -19.68, 60.92 -26.55, 69.28 -33.22" stroke="#087f5b" stroke-width="2" fill="none"></path></g><g transform="translate(154 111) rotate(0 34.53980849315877 -16.431345535344434)"><path d="M39.85 -29.68 C49.75 -32.93, 54.68 -32.64, 69.45 -33.89 M38.45 -31.22 C49.64 -32.12, 58.18 -32.8, 69.28 -33.22" stroke="#087f5b" stroke-width="2" fill="none"></path></g></g><g stroke-linecap="round"><g transform="translate(170 141) rotate(0 24.099306289358026 -5.026106396866936)"><path d="M0.78 -0.59 C8.31 -2.47, 38.49 -8.38, 46.18 -10.11 M-0.27 1.72 C7.56 0.02, 40.72 -9.87, 48.46 -11.77" stroke="#087f5b" stroke-width="2" fill="none"></path></g><g transform="translate(170 141) rotate(0 24.099306289358026 -5.026106396866936)"><path d="M27.81 0.84 C37.68 -3.35, 43.78 -8.91, 49.53 -11.79 M29.47 1.38 C35.87 -3.46, 42.73 -7.32, 48.43 -12.04" stroke="#087f5b" stroke-width="2" fill="none"></path></g><g transform="translate(170 141) rotate(0 24.099306289358026 -5.026106396866936)"><path d="M23.43 -15.07 C35.13 -13.19, 42.91 -12.65, 49.53 -11.79 M25.09 -14.53 C33.23 -13.38, 41.74 -11.25, 48.43 -12.04" stroke="#087f5b" stroke-width="2" fill="none"></path></g></g><g stroke-linecap="round"><g transform="translate(162 168) rotate(0 33.07539101344315 19.325124214189117)"><path d="M0.76 1.07 C1.9 5.76, -4.24 21.79, 6.79 27.75 C17.82 33.71, 57.04 35.46, 66.94 36.83 M-0.3 0.59 C0.76 4.92, -4.82 19.51, 6.26 25.76 C17.33 32, 56.19 36.26, 66.14 38.06" stroke="#087f5b" stroke-width="2" fill="none"></path></g><g transform="translate(162 168) rotate(0 33.07539101344315 19.325124214189117)"><path d="M38.54 45.37 C45.83 42, 53.78 38.96, 64.4 38.06 M36.81 43.99 C45.39 42.9, 54.06 40.29, 66.21 37.21" stroke="#087f5b" stroke-width="2" fill="none"></path></g><g transform="translate(162 168) rotate(0 33.07539101344315 19.325124214189117)"><path d="M41.56 25.08 C47.9 27.7, 54.97 30.63, 64.4 38.06 M39.83 23.69 C47.41 28.34, 55.23 31.48, 66.21 37.21" stroke="#087f5b" stroke-width="2" fill="none"></path></g></g><g stroke-linecap="round"><g transform="translate(525 126) rotate(0 -38.62453845110247 -22.80019218549134)"><path d="M-0.03 0.3 C-12.78 -7.38, -63.86 -38.04, -76.87 -45.9 M-1.5 -0.59 C-14.28 -8.07, -64.32 -36.74, -77.22 -44.31" stroke="#087f5b" stroke-width="2" fill="none"></path></g><g transform="translate(525 126) rotate(0 -38.62453845110247 -22.80019218549134)"><path d="M-47.18 -37.17 C-55.45 -40.62, -64.98 -40.06, -78.49 -44.38 M-48.11 -39.64 C-55.01 -39.71, -61.98 -41.96, -77.92 -44.33" stroke="#087f5b" stroke-width="2" fill="none"></path></g><g transform="translate(525 126) rotate(0 -38.62453845110247 -22.80019218549134)"><path d="M-57.47 -19.42 C-63 -27.62, -69.77 -31.82, -78.49 -44.38 M-58.4 -21.89 C-63.02 -25.99, -67.6 -32.38, -77.92 -44.33" stroke="#087f5b" stroke-width="2" fill="none"></path></g></g><g stroke-linecap="round"><g transform="translate(504 153) rotate(0 -30.15855690498836 -16.18272086692508)"><path d="M-0.47 0.25 C-10.41 -4.89, -50.45 -25.6, -60.56 -31.01 M1.49 -0.67 C-8.59 -6.11, -51.75 -27.56, -61.81 -32.61" stroke="#087f5b" stroke-width="2" fill="none"></path></g><g transform="translate(504 153) rotate(0 -30.15855690498836 -16.18272086692508)"><path d="M-31.59 -30.13 C-37.11 -31.97, -45.84 -31.76, -63.76 -34.11 M-32.89 -29.13 C-38.36 -29.28, -45.46 -31.41, -62.06 -32.86" stroke="#087f5b" stroke-width="2" fill="none"></path></g><g transform="translate(504 153) rotate(0 -30.15855690498836 -16.18272086692508)"><path d="M-40.77 -11.77 C-44.18 -17.74, -50.83 -21.7, -63.76 -34.11 M-42.06 -10.78 C-45.66 -14.97, -50.73 -21.17, -62.06 -32.86" stroke="#087f5b" stroke-width="2" fill="none"></path></g></g><g stroke-linecap="round"><g transform="translate(520 181) rotate(0 -33.456079255589316 -8.701746550328096)"><path d="M0.72 0.19 C-10.61 -2.5, -55.65 -12.89, -67.14 -15.65 M-0.36 -0.75 C-11.85 -3.86, -56.18 -15.18, -67.63 -17.6" stroke="#087f5b" stroke-width="2" fill="none"></path></g><g transform="translate(520 181) rotate(0 -33.456079255589316 -8.701746550328096)"><path d="M-37.52 -19.66 C-48.33 -19.96, -60.61 -20.3, -67.77 -19.15 M-38.39 -20.18 C-47.72 -20.44, -60.03 -18.46, -66.9 -16.94" stroke="#087f5b" stroke-width="2" fill="none"></path></g><g transform="translate(520 181) rotate(0 -33.456079255589316 -8.701746550328096)"><path d="M-42.24 0.31 C-51.38 -7.45, -61.9 -15.22, -67.77 -19.15 M-43.12 -0.21 C-50.9 -7.75, -61.51 -13, -66.9 -16.94" stroke="#087f5b" stroke-width="2" fill="none"></path></g></g><g transform="translate(76 214) rotate(0 65.5 12.5)"><text x="0" y="18" font-family="Virgil, Segoe UI Emoji" font-size="20px" fill="#5f3dc4" text-anchor="start" style="white-space: pre;" direction="ltr">incoming write</text></g><g stroke-linecap="round" transform="translate(229.5 185) rotate(0 104.5 21.5)"><path d="M0.79 -0.87 C69.98 2.32, 137.6 -0.26, 208.81 -1.5 M0.33 0.14 C78.68 0.18, 158.13 0.35, 209.53 0.88 M207.09 -1.07 C209.46 10.79, 208.41 25.78, 207.78 42.51 M208.71 0.42 C209.86 12.09, 208.6 25.9, 209.7 43.75 M208.66 43.51 C157.55 43.15, 107.92 41.53, 0.11 44.35 M209.07 43.27 C159.43 43.74, 111.13 43.97, 0.87 43.65 M-1.58 41.22 C0.24 32.49, -0.48 24.06, -1.45 1.24 M0.05 42.28 C-0.48 32.39, -0.84 22.29, 0.98 -0.33" stroke="#000000" stroke-width="1" fill="none"></path></g><g transform="translate(251 194) rotate(0 83 12.5)"><text x="83" y="18" font-family="Virgil, Segoe UI Emoji" font-size="20px" fill="#087f5b" text-anchor="middle" style="white-space: pre;" direction="ltr">Page4b (private)</text></g></svg>